<svg xmlns="http://www.w3.org/2000/svg" version="1.1" xmlns:xlink="http://www.w3.org/1999/xlink" width="74" height="74"><svg width="74" height="74" viewBox="0 0 74 74" fill="none" xmlns="http://www.w3.org/2000/svg">
<path d="M28 7H25V10H28V7Z" fill="#FFDBAC"></path>
<path d="M31 7H28V10H31V7Z" fill="#FFDBAC"></path>
<path d="M34 7H31V10H34V7Z" fill="#FFDBAC"></path>
<path d="M37 7H34V10H37V7Z" fill="#FFDBAC"></path>
<path d="M40 7H37V10H40V7Z" fill="#FFDBAC"></path>
<path d="M43 7H40V10H43V7Z" fill="#FFDBAC"></path>
<path d="M46 7H43V10H46V7Z" fill="#FFDBAC"></path>
<path d="M49 7H46V10H49V7Z" fill="#FFDBAC"></path>
<path d="M25 10H22V13H25V10Z" fill="#4A3728"></path>
<path d="M28 10H25V13H28V10Z" fill="#4A3728"></path>
<path d="M31 10H28V13H31V10Z" fill="#4A3728"></path>
<path d="M34 10H31V13H34V10Z" fill="#4A3728"></path>
<path d="M37 10H34V13H37V10Z" fill="#4A3728"></path>
<path d="M40 10H37V13H40V10Z" fill="#4A3728"></path>
<path d="M43 10H40V13H43V10Z" fill="#4A3728"></path>
<path d="M46 10H43V13H46V10Z" fill="#4A3728"></path>
<path d="M49 10H46V13H49V10Z" fill="#4A3728"></path>
<path d="M52 10H49V13H52V10Z" fill="#4A3728"></path>
<path d="M25 13H22V16H25V13Z" fill="#4A3728"></path>
<path d="M28 13H25V16H28V13Z" fill="#FFDBAC"></path>
<path d="M31 13H28V16H31V13Z" fill="#FFDBAC"></path>
<path d="M34 13H31V16H34V13Z" fill="#FFDBAC"></path>
<path d="M37 13H34V16H37V13Z" fill="#FFDBAC"></path>
<path d="M40 13H37V16H40V13Z" fill="#FFDBAC"></path>
<path d="M43 13H40V16H43V13Z" fill="#FFDBAC"></path>
<path d="M46 13H43V16H46V13Z" fill="#FFDBAC"></path>
<path d="M49 13H46V16H49V13Z" fill="#FFDBAC"></path>
<path d="M52 13H49V16H52V13Z" fill="#4A3728"></path>
<path d="M25 16H22V19H25V16Z" fill="#4A3728"></path>
<path d="M28 16H25V19H28V16Z" fill="#FFDBAC"></path>
<path d="M31 16H28V19H31V16Z" fill="#FFDBAC"></path>
<path d="M34 16H31V19H34V16Z" fill="#FFDBAC"></path>
<path d="M37 16H34V19H37V16Z" fill="#FFDBAC"></path>
<path d="M40 16H37V19H40V16Z" fill="#FFDBAC"></path>
<path d="M43 16H40V19H43V16Z" fill="#FFDBAC"></path>
<path d="M46 16H43V19H46V16Z" fill="#FFDBAC"></path>
<path d="M49 16H46V19H49V16Z" fill="#FFDBAC"></path>
<path d="M52 16H49V19H52V16Z" fill="#4A3728"></path>
<path d="M25 19H22V22H25V19Z" fill="#4A3728"></path>
<path d="M28 19H25V22H28V19Z" fill="#FFDBAC"></path>
<path d="M31 19H28V22H31V19Z" fill="#FFDBAC"></path>
<path d="M34 19H31V22H34V19Z" fill="#1F2937"></path>
<path d="M37 19H34V22H37V19Z" fill="#FFDBAC"></path>
<path d="M40 19H37V22H40V19Z" fill="#FFDBAC"></path>
<path d="M43 19H40V22H43V19Z" fill="#1F2937"></path>
<path d="M46 19H43V22H46V19Z" fill="#FFDBAC"></path>
<path d="M49 19H46V22H49V19Z" fill="#FFDBAC"></path>
<path d="M52 19H49V22H52V19Z" fill="#4A3728"></path>
<path d="M25 22H22V25H25V22Z" fill="#4A3728"></path>
<path d="M28 22H25V25H28V22Z" fill="#FFDBAC"></path>
<path d="M31 22H28V25H31V22Z" fill="#FFDBAC"></path>
<path d="M34 22H31V25H34V22Z" fill="#FFDBAC"></path>
<path d="M37 22H34V25H37V22Z" fill="#FFDBAC"></path>
<path d="M40 22H37V25H40V22Z" fill="#E6A875"></path>
<path d="M43 22H40V25H43V22Z" fill="#FFDBAC"></path>
<path d="M46 22H43V25H46V22Z" fill="#FFDBAC"></path>
<path d="M49 22H46V25H49V22Z" fill="#FFDBAC"></path>
<path d="M52 22H49V25H52V22Z" fill="#4A3728"></path>
<path d="M25 25H22V28H25V25Z" fill="#4A3728"></path>
<path d="M28 25H25V28H28V25Z" fill="#FFDBAC"></path>
<path d="M31 25H28V28H31V25Z" fill="#4A3728"></path>
<path d="M34 25H31V28H34V25Z" fill="#4A3728"></path>
<path d="M37 25H34V28H37V25Z" fill="#4A3728"></path>
<path d="M40 25H37V28H40V25Z" fill="#FFDBAC"></path>
<path d="M43 25H40V28H43V25Z" fill="#4A3728"></path>
<path d="M46 25H43V28H46V25Z" fill="#4A3728"></path>
<path d="M49 25H46V28H49V25Z" fill="#4A3728"></path>
<path d="M52 25H49V28H52V25Z" fill="#4A3728"></path>
<path d="M28 28H25V31H28V28Z" fill="#FFDBAC"></path>
<path d="M31 28H28V31H31V28Z" fill="#4A3728"></path>
<path d="M34 28H31V31H34V28Z" fill="#4A3728"></path>
<path d="M37 28H34V31H37V28Z" fill="#4A3728"></path>
<path d="M40 28H37V31H40V28Z" fill="#4A3728"></path>
<path d="M43 28H40V31H43V28Z" fill="#4A3728"></path>
<path d="M46 28H43V31H46V28Z" fill="#4A3728"></path>
<path d="M49 28H46V31H49V28Z" fill="#4A3728"></path>
<path d="M52 28H49V31H52V28Z" fill="#FFDBAC"></path>
<path d="M28 31H25V34H28V31Z" fill="#FFDBAC"></path>
<path d="M31 31H28V34H31V31Z" fill="#FFDBAC"></path>
<path d="M34 31H31V34H34V31Z" fill="#FFDBAC"></path>
<path d="M37 31H34V34H37V31Z" fill="#FFDBAC"></path>
<path d="M40 31H37V34H40V31Z" fill="#FFDBAC"></path>
<path d="M43 31H40V34H43V31Z" fill="#FFDBAC"></path>
<path d="M46 31H43V34H46V31Z" fill="#FFDBAC"></path>
<path d="M49 31H46V34H49V31Z" fill="#FFDBAC"></path>
<path d="M52 31H49V34H52V31Z" fill="#FFDBAC"></path>
<path d="M34 34H31V37H34V34Z" fill="#E6A875"></path>
<path d="M37 34H34V37H37V34Z" fill="#E6A875"></path>
<path d="M40 34H37V37H40V34Z" fill="#E6A875"></path>
<path d="M43 34H40V37H43V34Z" fill="#E6A875"></path>
<path d="M46 34H43V37H46V34Z" fill="#E6A875"></path>
<path d="M22 37H19V40H22V37Z" fill="#2563EB"></path>
<path d="M25 37H22V40H25V37Z" fill="#2563EB"></path>
<path d="M28 37H25V40H28V37Z" fill="#2563EB"></path>
<path d="M31 37H28V40H31V37Z" fill="#2563EB"></path>
<path d="M34 37H31V40H34V37Z" fill="#2563EB"></path>
<path d="M37 37H34V40H37V37Z" fill="#2563EB"></path>
<path d="M40 37H37V40H40V37Z" fill="#2563EB"></path>
<path d="M43 37H40V40H43V37Z" fill="#2563EB"></path>
<path d="M46 37H43V40H46V37Z" fill="#2563EB"></path>
<path d="M49 37H46V40H49V37Z" fill="#2563EB"></path>
<path d="M52 37H49V40H52V37Z" fill="#2563EB"></path>
<path d="M55 37H52V40H55V37Z" fill="#2563EB"></path>
<path d="M19 40H16V43H19V40Z" fill="#2563EB"></path>
<path d="M22 40H19V43H22V40Z" fill="#1E40AF"></path>
<path d="M25 40H22V43H25V40Z" fill="#2563EB"></path>
<path d="M28 40H25V43H28V40Z" fill="#2563EB"></path>
<path d="M31 40H28V43H31V40Z" fill="#2563EB"></path>
<path d="M34 40H31V43H34V40Z" fill="#2563EB"></path>
<path d="M37 40H34V43H37V40Z" fill="#2563EB"></path>
<path d="M40 40H37V43H40V40Z" fill="#2563EB"></path>
<path d="M43 40H40V43H43V40Z" fill="#2563EB"></path>
<path d="M46 40H43V43H46V40Z" fill="#2563EB"></path>
<path d="M49 40H46V43H49V40Z" fill="#2563EB"></path>
<path d="M52 40H49V43H52V40Z" fill="#1E40AF"></path>
<path d="M55 40H52V43H55V40Z" fill="#2563EB"></path>
<path d="M58 40H55V43H58V40Z" fill="#2563EB"></path>
<path d="M16 43H13V46H16V43Z" fill="#2563EB"></path>
<path d="M19 43H16V46H19V43Z" fill="#1E40AF"></path>
<path d="M22 43H19V46H22V43Z" fill="#2563EB"></path>
<path d="M25 43H22V46H25V43Z" fill="#2563EB"></path>
<path d="M28 43H25V46H28V43Z" fill="#2563EB"></path>
<path d="M31 43H28V46H31V43Z" fill="#2563EB"></path>
<path d="M34 43H31V46H34V43Z" fill="#2563EB"></path>
<path d="M37 43H34V46H37V43Z" fill="#2563EB"></path>
<path d="M40 43H37V46H40V43Z" fill="#2563EB"></path>
<path d="M43 43H40V46H43V43Z" fill="#2563EB"></path>
<path d="M46 43H43V46H46V43Z" fill="#2563EB"></path>
<path d="M49 43H46V46H49V43Z" fill="#2563EB"></path>
<path d="M52 43H49V46H52V43Z" fill="#2563EB"></path>
<path d="M55 43H52V46H55V43Z" fill="#1E40AF"></path>
<path d="M58 43H55V46H58V43Z" fill="#2563EB"></path>
<path d="M61 43H58V46H61V43Z" fill="#2563EB"></path>
<path d="M13 46H10V49H13V46Z" fill="#2563EB"></path>
<path d="M16 46H13V49H16V46Z" fill="#1E40AF"></path>
<path d="M19 46H16V49H19V46Z" fill="#2563EB"></path>
<path d="M22 46H19V49H22V46Z" fill="#2563EB"></path>
<path d="M25 46H22V49H25V46Z" fill="#2563EB"></path>
<path d="M28 46H25V49H28V46Z" fill="#2563EB"></path>
<path d="M31 46H28V49H31V46Z" fill="#2563EB"></path>
<path d="M34 46H31V49H34V46Z" fill="#2563EB"></path>
<path d="M37 46H34V49H37V46Z" fill="#2563EB"></path>
<path d="M40 46H37V49H40V46Z" fill="#2563EB"></path>
<path d="M43 46H40V49H43V46Z" fill="#2563EB"></path>
<path d="M46 46H43V49H46V46Z" fill="#2563EB"></path>
<path d="M49 46H46V49H49V46Z" fill="#2563EB"></path>
<path d="M52 46H49V49H52V46Z" fill="#2563EB"></path>
<path d="M55 46H52V49H55V46Z" fill="#2563EB"></path>
<path d="M58 46H55V49H58V46Z" fill="#1E40AF"></path>
<path d="M61 46H58V49H61V46Z" fill="#2563EB"></path>
<path d="M64 46H61V49H64V46Z" fill="#2563EB"></path>
<path d="M13 49H10V52H13V49Z" fill="#2563EB"></path>
<path d="M16 49H13V52H16V49Z" fill="#2563EB"></path>
<path d="M19 49H16V52H19V49Z" fill="#2563EB"></path>
<path d="M22 49H19V52H22V49Z" fill="#2563EB"></path>
<path d="M25 49H22V52H25V49Z" fill="#2563EB"></path>
<path d="M28 49H25V52H28V49Z" fill="#2563EB"></path>
<path d="M31 49H28V52H31V49Z" fill="#2563EB"></path>
<path d="M34 49H31V52H34V49Z" fill="#2563EB"></path>
<path d="M37 49H34V52H37V49Z" fill="#2563EB"></path>
<path d="M40 49H37V52H40V49Z" fill="#2563EB"></path>
<path d="M43 49H40V52H43V49Z" fill="#2563EB"></path>
<path d="M46 49H43V52H46V49Z" fill="#2563EB"></path>
<path d="M49 49H46V52H49V49Z" fill="#2563EB"></path>
<path d="M52 49H49V52H52V49Z" fill="#2563EB"></path>
<path d="M55 49H52V52H55V49Z" fill="#2563EB"></path>
<path d="M58 49H55V52H58V49Z" fill="#2563EB"></path>
<path d="M61 49H58V52H61V49Z" fill="#FFDBAC"></path>
<path d="M64 49H61V52H64V49Z" fill="#FFDBAC"></path>
<path d="M16 52H13V55H16V52Z" fill="#2563EB"></path>
<path d="M19 52H16V55H19V52Z" fill="#2563EB"></path>
<path d="M22 52H19V55H22V52Z" fill="#2563EB"></path>
<path d="M25 52H22V55H25V52Z" fill="#2563EB"></path>
<path d="M28 52H25V55H28V52Z" fill="#2563EB"></path>
<path d="M31 52H28V55H31V52Z" fill="#2563EB"></path>
<path d="M34 52H31V55H34V52Z" fill="#2563EB"></path>
<path d="M37 52H34V55H37V52Z" fill="#2563EB"></path>
<path d="M40 52H37V55H40V52Z" fill="#2563EB"></path>
<path d="M43 52H40V55H43V52Z" fill="#2563EB"></path>
<path d="M46 52H43V55H46V52Z" fill="#2563EB"></path>
<path d="M49 52H46V55H49V52Z" fill="#2563EB"></path>
<path d="M52 52H49V55H52V52Z" fill="#2563EB"></path>
<path d="M55 52H52V55H55V52Z" fill="#2563EB"></path>
<path d="M58 52H55V55H58V52Z" fill="#FFDBAC"></path>
<path d="M61 52H58V55H61V52Z" fill="#FFDBAC"></path>
<path d="M64 52H61V55H64V52Z" fill="#1F2937"></path>
<path d="M19 55H16V58H19V55Z" fill="#2563EB"></path>
<path d="M22 55H19V58H22V55Z" fill="#2563EB"></path>
<path d="M25 55H22V58H25V55Z" fill="#2563EB"></path>
<path d="M28 55H25V58H28V55Z" fill="#2563EB"></path>
<path d="M31 55H28V58H31V55Z" fill="#2563EB"></path>
<path d="M34 55H31V58H34V55Z" fill="#2563EB"></path>
<path d="M37 55H34V58H37V55Z" fill="#2563EB"></path>
<path d="M40 55H37V58H40V55Z" fill="#2563EB"></path>
<path d="M43 55H40V58H43V55Z" fill="#2563EB"></path>
<path d="M46 55H43V58H46V55Z" fill="#2563EB"></path>
<path d="M49 55H46V58H49V55Z" fill="#2563EB"></path>
<path d="M52 55H49V58H52V55Z" fill="#2563EB"></path>
<path d="M55 55H52V58H55V55Z" fill="#2563EB"></path>
<path d="M58 55H55V58H58V55Z" fill="#FFDBAC"></path>
<path d="M61 55H58V58H61V55Z" fill="#FFDBAC"></path>
<path d="M64 55H61V58H64V55Z" fill="#1F2937"></path>
<path d="M22 58H19V61H22V58Z" fill="#2563EB"></path>
<path d="M25 58H22V61H25V58Z" fill="#2563EB"></path>
<path d="M28 58H25V61H28V58Z" fill="#2563EB"></path>
<path d="M31 58H28V61H31V58Z" fill="#2563EB"></path>
<path d="M34 58H31V61H34V58Z" fill="#2563EB"></path>
<path d="M37 58H34V61H37V58Z" fill="#2563EB"></path>
<path d="M40 58H37V61H40V58Z" fill="#2563EB"></path>
<path d="M43 58H40V61H43V58Z" fill="#2563EB"></path>
<path d="M46 58H43V61H46V58Z" fill="#2563EB"></path>
<path d="M49 58H46V61H49V58Z" fill="#2563EB"></path>
<path d="M52 58H49V61H52V58Z" fill="#2563EB"></path>
<path d="M55 58H52V61H55V58Z" fill="#2563EB"></path>
<path d="M58 58H55V61H58V58Z" fill="#FFDBAC"></path>
<path d="M61 58H58V61H61V58Z" fill="#FFDBAC"></path>
<path d="M64 58H61V61H64V58Z" fill="#1F2937"></path>
<path d="M64 61H61V64H64V61Z" fill="#DC2626"></path>
</svg><style>@media (prefers-color-scheme: light) { :root { filter: none; } }
@media (prefers-color-scheme: dark) { :root { filter: none; } }
</style></svg>